<svg viewBox="20 30 600 400" width="100%" class="approach-art" role="img" aria-label="Illustration of the approach on your ServiceNow platform: baseline, fix the sources, govern"><g><polygon points="60.2,246.0 320.0,396.0 320.0,411.0 60.2,261.0" fill="#eef2f7" stroke="#c9d4e2" stroke-width="1" stroke-linejoin="round"></polygon><polygon points="579.8,246.0 320.0,396.0 320.0,411.0 579.8,261.0" fill="#e3e9f1" stroke="#c9d4e2" stroke-width="1" stroke-linejoin="round"></polygon><polygon points="320.0,96.0 579.8,246.0 320.0,396.0 60.2,246.0" fill="#ffffff" stroke="#c9d4e2" stroke-width="1" stroke-linejoin="round"></polygon></g><line x1="346.0" y1="111.0" x2="86.2" y2="261.0" stroke="#eef2f7"></line><line x1="294.0" y1="111.0" x2="553.8" y2="261.0" stroke="#eef2f7"></line><line x1="372.0" y1="126.0" x2="112.2" y2="276.0" stroke="#eef2f7"></line><line x1="268.0" y1="126.0" x2="527.8" y2="276.0" stroke="#eef2f7"></line><line x1="397.9" y1="141.0" x2="138.1" y2="291.0" stroke="#eef2f7"></line><line x1="242.1" y1="141.0" x2="501.9" y2="291.0" stroke="#eef2f7"></line><line x1="423.9" y1="156.0" x2="164.1" y2="306.0" stroke="#eef2f7"></line><line x1="216.1" y1="156.0" x2="475.9" y2="306.0" stroke="#eef2f7"></line><line x1="449.9" y1="171.0" x2="190.1" y2="321.0" stroke="#eef2f7"></line><line x1="190.1" y1="171.0" x2="449.9" y2="321.0" stroke="#eef2f7"></line><line x1="475.9" y1="186.0" x2="216.1" y2="336.0" stroke="#eef2f7"></line><line x1="164.1" y1="186.0" x2="423.9" y2="336.0" stroke="#eef2f7"></line><line x1="501.9" y1="201.0" x2="242.1" y2="351.0" stroke="#eef2f7"></line><line x1="138.1" y1="201.0" x2="397.9" y2="351.0" stroke="#eef2f7"></line><line x1="527.8" y1="216.0" x2="268.0" y2="366.0" stroke="#eef2f7"></line><line x1="112.2" y1="216.0" x2="372.0" y2="366.0" stroke="#eef2f7"></line><line x1="553.8" y1="231.0" x2="294.0" y2="381.0" stroke="#eef2f7"></line><line x1="86.2" y1="231.0" x2="346.0" y2="381.0" stroke="#eef2f7"></line><text transform="matrix(0.866,0.500,-0.866,0.500,113.5,257.2)" font-size="17" font-weight="600" fill="#c9d4e2" letter-spacing="0.5">ServiceNow</text><path d="M299.2,183.0 L330.4,246.0" stroke="#adbac1" stroke-dasharray="3 4"></path><path d="M216.1,249.0 L330.4,246.0" stroke="#adbac1" stroke-dasharray="3 4"></path><path d="M465.5,243.0 L330.4,246.0" stroke="#adbac1" stroke-dasharray="3 4"></path><path d="M304.4,318.0 L330.4,246.0" stroke="#adbac1" stroke-dasharray="3 4"></path><path d="M403.1,195.0 L330.4,246.0" stroke="#adbac1" stroke-dasharray="3 4"></path><g><polygon points="283.6,165.0 299.2,174.0 299.2,192.0 283.6,183.0" fill="#eef2f7" stroke="#c9d4e2" stroke-width="1" stroke-linejoin="round"></polygon><polygon points="314.8,165.0 299.2,174.0 299.2,192.0 314.8,183.0" fill="#e3e9f1" stroke="#c9d4e2" stroke-width="1" stroke-linejoin="round"></polygon><polygon points="299.2,156.0 314.8,165.0 299.2,174.0 283.6,165.0" fill="#ffffff" stroke="#c9d4e2" stroke-width="1" stroke-linejoin="round"></polygon></g><g><polygon points="200.5,231.0 216.1,240.0 216.1,258.0 200.5,249.0" fill="#eef2f7" stroke="#c9d4e2" stroke-width="1" stroke-linejoin="round"></polygon><polygon points="231.7,231.0 216.1,240.0 216.1,258.0 231.7,249.0" fill="#e3e9f1" stroke="#c9d4e2" stroke-width="1" stroke-linejoin="round"></polygon><polygon points="216.1,222.0 231.7,231.0 216.1,240.0 200.5,231.0" fill="#ffffff" stroke="#c9d4e2" stroke-width="1" stroke-linejoin="round"></polygon></g><g><polygon points="449.9,225.0 465.5,234.0 465.5,252.0 449.9,243.0" fill="#eef2f7" stroke="#c9d4e2" stroke-width="1" stroke-linejoin="round"></polygon><polygon points="481.1,225.0 465.5,234.0 465.5,252.0 481.1,243.0" fill="#e3e9f1" stroke="#c9d4e2" stroke-width="1" stroke-linejoin="round"></polygon><polygon points="465.5,216.0 481.1,225.0 465.5,234.0 449.9,225.0" fill="#ffffff" stroke="#c9d4e2" stroke-width="1" stroke-linejoin="round"></polygon></g><g class="iso-blink"><polygon points="288.8,300.0 304.4,309.0 304.4,327.0 288.8,318.0" fill="#4fc23c" stroke="#3fae2e" stroke-width="1" stroke-linejoin="round"></polygon><polygon points="320.0,300.0 304.4,309.0 304.4,327.0 320.0,318.0" fill="#3fae2e" stroke="#3fae2e" stroke-width="1" stroke-linejoin="round"></polygon><polygon points="304.4,291.0 320.0,300.0 304.4,309.0 288.8,300.0" fill="#62d84e" stroke="#3fae2e" stroke-width="1" stroke-linejoin="round"></polygon></g><g><polygon points="387.5,177.0 403.1,186.0 403.1,204.0 387.5,195.0" fill="#eef2f7" stroke="#c9d4e2" stroke-width="1" stroke-linejoin="round"></polygon><polygon points="418.7,177.0 403.1,186.0 403.1,204.0 418.7,195.0" fill="#e3e9f1" stroke="#c9d4e2" stroke-width="1" stroke-linejoin="round"></polygon><polygon points="403.1,168.0 418.7,177.0 403.1,186.0 387.5,177.0" fill="#ffffff" stroke="#c9d4e2" stroke-width="1" stroke-linejoin="round"></polygon></g><g><path d="M291.8,231.0 L291.8,246.0 A38.6,22.3 0 0 0 369.0,246.0 L369.0,231.0 Z" fill="#ffffff" stroke="#c9d4e2"></path><ellipse cx="330.4" cy="231.0" rx="38.6" ry="22.3" fill="#e8f0fb" stroke="#c9d4e2"></ellipse></g><g><path d="M291.8,213.0 L291.8,228.0 A38.6,22.3 0 0 0 369.0,228.0 L369.0,213.0 Z" fill="#ffffff" stroke="#c9d4e2"></path><ellipse cx="330.4" cy="213.0" rx="38.6" ry="22.3" fill="#e8f0fb" stroke="#c9d4e2"></ellipse></g><g><path d="M291.8,195.0 L291.8,210.0 A38.6,22.3 0 0 0 369.0,210.0 L369.0,195.0 Z" fill="#ffffff" stroke="#c9d4e2"></path><ellipse cx="330.4" cy="195.0" rx="38.6" ry="22.3" fill="#1e4c8c" stroke="#c9d4e2"></ellipse></g><g class="iso-scan"><rect x="103.2" y="135.4" width="18" height="140" fill="#62d84e" opacity=".10"></rect><line x1="112.2" y1="135.4" x2="112.2" y2="275.4" stroke="#62d84e" stroke-width="1.5" opacity=".6"></line></g><line x1="153.7" y1="240.0" x2="153.7" y2="216.0" stroke="#4a5d77" stroke-width="1.6"></line><g><polygon points="150.6,157.8 189.6,180.3 189.6,219.3 150.6,196.8" fill="#081f3a" stroke="#081f3a" stroke-width="1" stroke-linejoin="round"></polygon><polygon points="192.7,178.5 189.6,180.3 189.6,219.3 192.7,217.5" fill="#13335f" stroke="#081f3a" stroke-width="1" stroke-linejoin="round"></polygon><polygon points="153.7,156.0 192.7,178.5 189.6,180.3 150.6,157.8" fill="#e3e9f1" stroke="#081f3a" stroke-width="1" stroke-linejoin="round"></polygon></g><path d="M156.1,200.6 A15,15 0 0 1 184.1,188.6" fill="none" stroke="#5a7394" stroke-width="3"></path><path d="M156.1,200.6 A15,15 0 0 1 176.1,184.6" fill="none" stroke="#62d84e" stroke-width="3"></path><g><polygon points="403.1,283.5 429.1,298.5 429.1,306.0 403.1,291.0" fill="#eef2f7" stroke="#c9d4e2" stroke-width="1" stroke-linejoin="round"></polygon><polygon points="455.1,283.5 429.1,298.5 429.1,306.0 455.1,291.0" fill="#e3e9f1" stroke="#c9d4e2" stroke-width="1" stroke-linejoin="round"></polygon><polygon points="429.1,268.5 455.1,283.5 429.1,298.5 403.1,283.5" fill="#ffffff" stroke="#c9d4e2" stroke-width="1" stroke-linejoin="round"></polygon></g><g transform="translate(429.1,249.0)"><path d="M0,-22 L17,-15 L17,0 C17,12 8,19 0,23 C-8,19 -17,12 -17,0 L-17,-15 Z" fill="#1e4c8c"></path><path d="M-7,0 L-2,5 L8,-6" fill="none" stroke="#62d84e" stroke-width="3" stroke-linecap="round"></path></g><rect x="109.0" y="121.8" width="112.8" height="28" rx="14" fill="#ffffff" stroke="#adbac1"></rect><text x="165.4" y="140.8" text-anchor="middle" font-size="14" font-weight="600" letter-spacing="1.6" fill="#081f3a">BASELINE</text><rect x="236.9" y="149.5" width="187.0" height="28" rx="14" fill="#ffffff" stroke="#adbac1"></rect><text x="330.4" y="168.5" text-anchor="middle" font-size="14" font-weight="600" letter-spacing="1.6" fill="#081f3a">FIX THE SOURCES</text><rect x="383.3" y="194.5" width="91.6" height="28" rx="14" fill="#ffffff" stroke="#adbac1"></rect><text x="429.1" y="213.5" text-anchor="middle" font-size="14" font-weight="600" letter-spacing="1.6" fill="#081f3a">GOVERN</text></svg>