<svg viewBox="20 30 600 400" width="100%" class="approach-art" role="img" aria-label="Illustration of the approach on your ServiceNow platform: assess and design, configure, hand over"><g><polygon points="60.2,246.0 320.0,396.0 320.0,411.0 60.2,261.0" fill="#eef2f7" stroke="#c9d4e2" stroke-width="1" stroke-linejoin="round"></polygon><polygon points="579.8,246.0 320.0,396.0 320.0,411.0 579.8,261.0" fill="#e3e9f1" stroke="#c9d4e2" stroke-width="1" stroke-linejoin="round"></polygon><polygon points="320.0,96.0 579.8,246.0 320.0,396.0 60.2,246.0" fill="#ffffff" stroke="#c9d4e2" stroke-width="1" stroke-linejoin="round"></polygon></g><line x1="346.0" y1="111.0" x2="86.2" y2="261.0" stroke="#eef2f7"></line><line x1="294.0" y1="111.0" x2="553.8" y2="261.0" stroke="#eef2f7"></line><line x1="372.0" y1="126.0" x2="112.2" y2="276.0" stroke="#eef2f7"></line><line x1="268.0" y1="126.0" x2="527.8" y2="276.0" stroke="#eef2f7"></line><line x1="397.9" y1="141.0" x2="138.1" y2="291.0" stroke="#eef2f7"></line><line x1="242.1" y1="141.0" x2="501.9" y2="291.0" stroke="#eef2f7"></line><line x1="423.9" y1="156.0" x2="164.1" y2="306.0" stroke="#eef2f7"></line><line x1="216.1" y1="156.0" x2="475.9" y2="306.0" stroke="#eef2f7"></line><line x1="449.9" y1="171.0" x2="190.1" y2="321.0" stroke="#eef2f7"></line><line x1="190.1" y1="171.0" x2="449.9" y2="321.0" stroke="#eef2f7"></line><line x1="475.9" y1="186.0" x2="216.1" y2="336.0" stroke="#eef2f7"></line><line x1="164.1" y1="186.0" x2="423.9" y2="336.0" stroke="#eef2f7"></line><line x1="501.9" y1="201.0" x2="242.1" y2="351.0" stroke="#eef2f7"></line><line x1="138.1" y1="201.0" x2="397.9" y2="351.0" stroke="#eef2f7"></line><line x1="527.8" y1="216.0" x2="268.0" y2="366.0" stroke="#eef2f7"></line><line x1="112.2" y1="216.0" x2="372.0" y2="366.0" stroke="#eef2f7"></line><line x1="553.8" y1="231.0" x2="294.0" y2="381.0" stroke="#eef2f7"></line><line x1="86.2" y1="231.0" x2="346.0" y2="381.0" stroke="#eef2f7"></line><text transform="matrix(0.866,0.500,-0.866,0.500,113.5,257.2)" font-size="17" font-weight="600" fill="#c9d4e2" letter-spacing="0.5">ServiceNow</text><polygon points="203.1,190.2 281.0,235.2 192.7,286.2 114.8,241.2" fill="#e8f0fb" stroke="#c9d4e2" stroke-width="1" stroke-linejoin="round"></polygon><line x1="216.1" y1="197.4" x2="127.7" y2="248.4" stroke="#d3e1f5"></line><line x1="229.1" y1="204.9" x2="140.7" y2="255.9" stroke="#d3e1f5"></line><line x1="242.1" y1="212.4" x2="153.7" y2="263.4" stroke="#d3e1f5"></line><line x1="255.0" y1="219.9" x2="166.7" y2="270.9" stroke="#d3e1f5"></line><line x1="268.0" y1="227.4" x2="179.7" y2="278.4" stroke="#d3e1f5"></line><line x1="190.1" y1="197.4" x2="268.0" y2="242.4" stroke="#d3e1f5"></line><line x1="177.1" y1="204.9" x2="255.0" y2="249.9" stroke="#d3e1f5"></line><line x1="164.1" y1="212.4" x2="242.1" y2="257.4" stroke="#d3e1f5"></line><line x1="151.1" y1="219.9" x2="229.1" y2="264.9" stroke="#d3e1f5"></line><line x1="138.1" y1="227.4" x2="216.1" y2="272.4" stroke="#d3e1f5"></line><line x1="125.1" y1="234.9" x2="203.1" y2="279.9" stroke="#d3e1f5"></line><polyline points="203.1,207.6 247.3,233.1 205.7,257.1 164.1,254.1 161.5,231.6 203.1,207.6" fill="none" stroke="#3d7ddb" stroke-width="1.6" stroke-linejoin="round"></polyline><g><polygon points="197.4,261.6 233.7,282.6 233.7,286.2 197.4,265.2" fill="#f2c48a" stroke="#d9a25f" stroke-width="1" stroke-linejoin="round"></polygon><polygon points="236.9,280.8 233.7,282.6 233.7,286.2 236.9,284.4" fill="#e8b673" stroke="#d9a25f" stroke-width="1" stroke-linejoin="round"></polygon><polygon points="200.5,259.8 236.9,280.8 233.7,282.6 197.4,261.6" fill="#ffd9a8" stroke="#d9a25f" stroke-width="1" stroke-linejoin="round"></polygon></g><g><polygon points="273.2,205.5 356.4,253.5 356.4,261.0 273.2,213.0" fill="#eef2f7" stroke="#c9d4e2" stroke-width="1" stroke-linejoin="round"></polygon><polygon points="439.5,205.5 356.4,253.5 356.4,261.0 439.5,213.0" fill="#e3e9f1" stroke="#c9d4e2" stroke-width="1" stroke-linejoin="round"></polygon><polygon points="356.4,157.5 439.5,205.5 356.4,253.5 273.2,205.5" fill="#ffffff" stroke="#c9d4e2" stroke-width="1" stroke-linejoin="round"></polygon></g><g><polygon points="288.8,197.1 356.4,236.1 356.4,244.5 288.8,205.5" fill="#d6e3f6" stroke="#b9cdea" stroke-width="1" stroke-linejoin="round"></polygon><polygon points="423.9,197.1 356.4,236.1 356.4,244.5 423.9,205.5" fill="#c9daf2" stroke="#b9cdea" stroke-width="1" stroke-linejoin="round"></polygon><polygon points="356.4,158.1 423.9,197.1 356.4,236.1 288.8,197.1" fill="#e8f0fb" stroke="#b9cdea" stroke-width="1" stroke-linejoin="round"></polygon></g><g><polygon points="288.8,182.7 356.4,221.7 356.4,230.1 288.8,191.1" fill="#2f6cc6" stroke="#285fb0" stroke-width="1" stroke-linejoin="round"></polygon><polygon points="423.9,182.7 356.4,221.7 356.4,230.1 423.9,191.1" fill="#285fb0" stroke="#285fb0" stroke-width="1" stroke-linejoin="round"></polygon><polygon points="356.4,143.7 423.9,182.7 356.4,221.7 288.8,182.7" fill="#3d7ddb" stroke="#285fb0" stroke-width="1" stroke-linejoin="round"></polygon></g><g class="iso-drop"><polygon points="288.8,168.3 356.4,207.3 356.4,215.7 288.8,176.7" fill="#081f3a" stroke="#081f3a" stroke-width="1" stroke-linejoin="round"></polygon><polygon points="423.9,168.3 356.4,207.3 356.4,215.7 423.9,176.7" fill="#13335f" stroke="#081f3a" stroke-width="1" stroke-linejoin="round"></polygon><polygon points="356.4,129.3 423.9,168.3 356.4,207.3 288.8,168.3" fill="#1e4c8c" stroke="#081f3a" stroke-width="1" stroke-linejoin="round"></polygon></g><g><polygon points="353.8,274.5 392.7,297.0 392.7,327.0 353.8,304.5" fill="#eef2f7" stroke="#c9d4e2" stroke-width="1" stroke-linejoin="round"></polygon><polygon points="431.7,274.5 392.7,297.0 392.7,327.0 431.7,304.5" fill="#e3e9f1" stroke="#c9d4e2" stroke-width="1" stroke-linejoin="round"></polygon><polygon points="392.7,252.0 431.7,274.5 392.7,297.0 353.8,274.5" fill="#ffffff" stroke="#c9d4e2" stroke-width="1" stroke-linejoin="round"></polygon></g><polygon points="409.6,261.8 414.8,264.8 375.9,287.2 370.7,284.2" fill="#62d84e"></polygon><polygon points="370.7,284.2 375.9,287.2 375.9,317.2 370.7,314.2" fill="#4fc23c"></polygon><g class="iso-bob"><circle cx="392.7" cy="244.5" r="11" fill="#62d84e"></circle><path d="M-4,0 L-1,3 L4,-3" transform="translate(392.7,244.5)" fill="none" stroke="#081f3a" stroke-width="2" stroke-linecap="round"></path></g><path d="M251.2,213.8 L258.9,209.2" fill="none" stroke="#adbac1" stroke-width="1.3" stroke-dasharray="4 5"></path><path d="M395.3,241.5 L448.6,272.2 L417.4,290.2" fill="none" stroke="#adbac1" stroke-width="1.3" stroke-dasharray="4 5"></path><path d="M-5,-4 L1,0 L-5,4" transform="translate(417.4,290.2) rotate(150)" fill="none" stroke="#4a5d77" stroke-width="1.5" stroke-linecap="round"></path><rect x="83.2" y="179.5" width="229.4" height="28" rx="14" fill="#ffffff" stroke="#adbac1"></rect><text x="197.9" y="198.5" text-anchor="middle" font-size="14" font-weight="600" letter-spacing="1.6" fill="#081f3a">ASSESS &amp; DESIGN</text><rect x="294.7" y="112.0" width="123.4" height="28" rx="14" fill="#ffffff" stroke="#adbac1"></rect><text x="356.4" y="131.0" text-anchor="middle" font-size="14" font-weight="600" letter-spacing="1.6" fill="#081f3a">CONFIGURE</text><rect x="331.0" y="187.0" width="123.4" height="28" rx="14" fill="#ffffff" stroke="#adbac1"></rect><text x="392.7" y="206.0" text-anchor="middle" font-size="14" font-weight="600" letter-spacing="1.6" fill="#081f3a">HAND OVER</text></svg>